<svg width="135" height="52" viewBox="0 0 135 52" fill="none" xmlns="http://www.w3.org/2000/svg">
<g filter="url(#filter0_in_1_128)">
<g clip-path="url(#clip0_1_128)">
<rect x="0.160156" width="52" height="52" rx="26" fill="#003F78"/>
<g opacity="0.6" filter="url(#filter1_f_1_128)">
<circle cx="26.1602" cy="36.92" r="26" fill="#2389DB"/>
</g>
<g filter="url(#filter2_f_1_128)">
<circle cx="26.1602" cy="47.84" r="26" fill="#8981E0"/>
</g>
<g filter="url(#filter3_f_1_128)">
<circle cx="25.6399" cy="57.72" r="26" fill="#FF7272"/>
</g>
</g>
</g>
<path d="M66.5869 34.374C66.984 37.445 68.0616 39.7577 69.8198 41.3121C71.578 42.8665 73.8183 43.6437 76.5407 43.6437C78.6203 43.6437 80.3691 43.2457 81.787 42.4495C83.2238 41.6344 84.3109 40.6581 85.0482 39.5207C85.8044 38.3644 86.1825 37.2554 86.1825 36.1938C86.1825 34.9427 85.8517 33.8338 85.19 32.867C84.5283 31.8812 83.4979 31.0756 82.0989 30.45C80.7188 29.8245 78.9133 29.3885 76.6825 29.142C74.9243 28.9335 73.2322 28.5923 71.6064 28.1184C69.9805 27.6445 68.5248 26.9715 67.2392 26.0995C65.9536 25.2275 64.9422 24.0901 64.2048 22.6874C63.4675 21.2656 63.0989 19.5216 63.0989 17.4554C63.0989 15.6735 63.4581 14.0432 64.1765 12.5646C64.9138 11.067 65.9347 9.77799 67.2392 8.69747C68.5437 7.59799 70.075 6.75443 71.8332 6.16678C73.5914 5.56017 75.4914 5.25687 77.5332 5.25687C79.4049 5.25687 80.8512 5.47487 81.8721 5.91086C82.9119 6.32791 83.6964 6.75443 84.2258 7.19043C84.7741 7.62643 85.2278 7.84443 85.587 7.84443C85.984 7.84443 86.3432 7.70225 86.6646 7.41791C86.986 7.1146 87.3358 6.96295 87.7139 6.96295C88.2054 6.96295 88.6402 7.16199 89.0183 7.56008C89.3965 7.95817 89.6989 8.47947 89.9258 9.12399C90.1527 9.74955 90.3228 10.4415 90.4363 11.1997C90.5497 11.958 90.6064 12.7068 90.6064 13.4461C90.6064 14.6214 90.4174 15.6924 90.0392 16.6592C89.6611 17.626 89.0467 18.1094 88.1959 18.1094C87.4775 18.1094 87.0427 17.8345 86.8915 17.2848C86.7402 16.7161 86.5701 16.0431 86.381 15.2659C86.2676 14.7541 86.0785 14.2233 85.8139 13.6735C85.5492 13.1049 85.2372 12.5741 84.878 12.0812C84.0273 11.0007 82.9402 10.1287 81.6168 9.4652C80.2934 8.78277 78.9417 8.44156 77.5616 8.44156C76.0302 8.44156 74.584 8.70695 73.2228 9.23773C71.8805 9.76851 70.784 10.5078 69.9332 11.4556C69.0825 12.4035 68.6571 13.5219 68.6571 14.8109C68.6571 16.3843 69.0447 17.607 69.8198 18.479C70.6138 19.3321 71.767 19.9861 73.2795 20.441C74.8108 20.877 76.6825 21.2656 78.8944 21.6068C81.182 21.986 83.29 22.5452 85.2183 23.2845C87.1467 24.0238 88.7064 25.1233 89.8974 26.5829C91.0885 28.0236 91.684 30.0235 91.684 32.5826C91.684 34.4593 91.3721 36.2507 90.7482 37.9568C90.1243 39.6629 89.179 41.1794 87.9124 42.5064C86.6457 43.8333 85.0765 44.8854 83.2049 45.6626C81.3521 46.4209 79.1875 46.8 76.7108 46.8C73.7805 46.8 71.1621 46.383 68.8556 45.5489C66.568 44.7148 64.9138 43.4163 63.8929 41.6533C63.7227 41.3879 63.5337 40.9709 63.3257 40.4022C63.1367 39.8145 62.9571 39.0847 62.7869 38.2127C62.6357 37.3218 62.5601 36.2886 62.5601 35.1133C62.5601 33.938 62.6829 33.1229 62.9287 32.6679C63.1934 32.213 63.6093 31.9855 64.1765 31.9855C64.668 31.9855 65.0745 32.0992 65.3959 32.3267C65.7173 32.5352 65.982 32.8196 66.1899 33.1798C66.3979 33.521 66.5302 33.9191 66.5869 34.374Z" fill="currentColor"/>
<path d="M93.9657 32.9971C93.9657 31.0204 94.3316 29.1762 95.0632 27.4644C95.7949 25.7526 96.8212 24.2548 98.1422 22.971C99.4632 21.6668 101.018 20.6581 102.806 19.9448C104.615 19.2112 106.576 18.8444 108.69 18.8444C111.231 18.8444 113.466 19.4048 115.397 20.5256C117.348 21.626 118.872 23.1646 119.97 25.1413C121.067 27.0976 121.616 29.3901 121.616 32.0189C121.616 34.0771 121.26 35.9927 120.549 37.7656C119.837 39.5181 118.842 41.0567 117.561 42.3812C116.301 43.6854 114.807 44.7146 113.08 45.4685C111.352 46.2022 109.452 46.569 107.379 46.569C104.818 46.569 102.522 45.978 100.49 44.7961C98.4776 43.6141 96.8822 42.0042 95.7034 39.9664C94.545 37.9082 93.9657 35.5851 93.9657 32.9971ZM108.751 43.5428C110.052 43.5428 111.231 43.1964 112.287 42.5035C113.364 41.8106 114.218 40.8733 114.848 39.6913C115.498 38.489 115.824 37.1237 115.824 35.5953C115.824 34.0058 115.6 32.4163 115.153 30.8268C114.726 29.2169 114.116 27.7497 113.324 26.4251C112.531 25.0801 111.586 24.0103 110.489 23.2155C109.391 22.4004 108.182 21.9928 106.861 21.9928C105.642 21.9928 104.514 22.3291 103.477 23.0016C102.441 23.674 101.607 24.6216 100.977 25.8443C100.347 27.067 100.032 28.4935 100.032 30.1237C100.032 31.754 100.256 33.3639 100.703 34.9534C101.15 36.5429 101.76 37.9897 102.532 39.2939C103.325 40.5778 104.249 41.6069 105.306 42.3812C106.363 43.1556 107.511 43.5428 108.751 43.5428Z" fill="currentColor"/>
<path d="M125.624 28.9999V20.5263C125.624 17.4933 125.586 15.1995 125.51 13.6451C125.453 12.0717 125.321 11.0007 125.113 10.432C124.905 9.86329 124.574 9.55999 124.121 9.52208C123.648 9.48416 123.27 9.52207 122.986 9.63581C122.703 9.7306 122.419 9.76851 122.136 9.74956C121.474 9.71164 121.143 9.35147 121.143 8.66903C121.143 8.25199 121.285 7.93921 121.568 7.73069C121.871 7.50321 122.334 7.23782 122.958 6.93451C123.62 6.61226 124.442 6.32791 125.425 6.08147C126.408 5.81608 127.353 5.60756 128.261 5.45591C129.187 5.2853 129.858 5.2 130.274 5.2C130.615 5.2 130.842 5.29478 130.955 5.48434C131.068 5.65495 131.125 5.94878 131.125 6.36582C131.125 7.16199 131.106 8.10982 131.068 9.20929C131.031 10.2898 130.993 11.74 130.955 13.5598C130.917 15.3607 130.898 17.7113 130.898 20.6116V28.6302C130.898 31.0566 130.898 33.2366 130.898 35.1702C130.917 37.0848 130.964 38.6771 131.04 39.9472C131.135 41.1984 131.257 42.0419 131.409 42.4779C131.541 42.8381 131.702 43.075 131.891 43.1888C132.099 43.3025 132.345 43.3689 132.628 43.3878C132.95 43.4257 133.205 43.4257 133.394 43.3878C133.583 43.331 133.81 43.3215 134.074 43.3594C134.263 43.3784 134.434 43.4637 134.585 43.6153C134.755 43.748 134.84 43.9376 134.84 44.184C134.84 44.5821 134.66 44.9328 134.301 45.2361C133.942 45.5394 133.261 45.7764 132.259 45.947C131.276 46.1365 129.811 46.2313 127.864 46.2313C125.179 46.2313 123.364 46.0986 122.419 45.8332C121.474 45.5678 121.001 45.1223 121.001 44.4968C121.001 44.2124 121.067 43.9755 121.2 43.7859C121.332 43.5774 121.531 43.4637 121.795 43.4447C122.041 43.4257 122.287 43.4447 122.533 43.5016C122.797 43.5395 123.052 43.549 123.298 43.53C123.544 43.511 123.818 43.4068 124.121 43.2172C124.423 43.0277 124.65 42.7528 124.801 42.3926C125.123 41.5585 125.34 40.0704 125.453 37.9284C125.567 35.7673 125.624 32.7912 125.624 28.9999Z" fill="currentColor"/>
<defs>
<filter id="filter0_in_1_128" x="0.160156" y="-1.04" width="52" height="53.04" filterUnits="userSpaceOnUse" color-interpolation-filters="sRGB">
<feFlood flood-opacity="0" result="BackgroundImageFix"/>
<feBlend mode="normal" in="SourceGraphic" in2="BackgroundImageFix" result="shape"/>
<feColorMatrix in="SourceAlpha" type="matrix" values="0 0 0 0 0 0 0 0 0 0 0 0 0 0 0 0 0 0 127 0" result="hardAlpha"/>
<feMorphology radius="2.08" operator="erode" in="SourceAlpha" result="effect1_innerShadow_1_128"/>
<feOffset dy="-1.04"/>
<feGaussianBlur stdDeviation="3.12"/>
<feComposite in2="hardAlpha" operator="arithmetic" k2="-1" k3="1"/>
<feColorMatrix type="matrix" values="0 0 0 0 0 0 0 0 0 0 0 0 0 0 0 0 0 0 0.15 0"/>
<feBlend mode="color-burn" in2="shape" result="effect1_innerShadow_1_128"/>
<feTurbulence type="fractalNoise" baseFrequency="3.8461539745330811 3.8461539745330811" stitchTiles="stitch" numOctaves="3" result="noise" seed="2336" />
<feColorMatrix in="noise" type="luminanceToAlpha" result="alphaNoise" />
<feComponentTransfer in="alphaNoise" result="coloredNoise1">
<feFuncA type="discrete" tableValues="0 0 0 0 1 1 1 1 1 1 1 1 1 1 1 1 1 1 1 1 1 1 1 1 1 1 1 1 1 1 1 1 1 1 1 1 1 1 1 1 1 1 1 1 1 0 0 0 0 0 0 0 0 0 0 0 0 0 0 0 0 0 0 0 0 0 0 0 0 0 0 0 0 0 0 0 0 0 0 0 0 0 0 0 0 0 0 0 0 0 0 0 0 0 0 0 0 0 0 0 "/>
</feComponentTransfer>
<feComposite operator="in" in2="effect1_innerShadow_1_128" in="coloredNoise1" result="noise1Clipped" />
<feFlood flood-color="rgba(0, 0, 0, 0.04)" result="color1Flood" />
<feComposite operator="in" in2="noise1Clipped" in="color1Flood" result="color1" />
<feMerge result="effect2_noise_1_128">
<feMergeNode in="effect1_innerShadow_1_128" />
<feMergeNode in="color1" />
</feMerge>
</filter>
<filter id="filter1_f_1_128" x="-15.4398" y="-4.68" width="83.2" height="83.2" filterUnits="userSpaceOnUse" color-interpolation-filters="sRGB">
<feFlood flood-opacity="0" result="BackgroundImageFix"/>
<feBlend mode="normal" in="SourceGraphic" in2="BackgroundImageFix" result="shape"/>
<feGaussianBlur stdDeviation="7.8" result="effect1_foregroundBlur_1_128"/>
</filter>
<filter id="filter2_f_1_128" x="-15.4398" y="6.24" width="83.2" height="83.2" filterUnits="userSpaceOnUse" color-interpolation-filters="sRGB">
<feFlood flood-opacity="0" result="BackgroundImageFix"/>
<feBlend mode="normal" in="SourceGraphic" in2="BackgroundImageFix" result="shape"/>
<feGaussianBlur stdDeviation="7.8" result="effect1_foregroundBlur_1_128"/>
</filter>
<filter id="filter3_f_1_128" x="-15.9601" y="16.12" width="83.2" height="83.2" filterUnits="userSpaceOnUse" color-interpolation-filters="sRGB">
<feFlood flood-opacity="0" result="BackgroundImageFix"/>
<feBlend mode="normal" in="SourceGraphic" in2="BackgroundImageFix" result="shape"/>
<feGaussianBlur stdDeviation="7.8" result="effect1_foregroundBlur_1_128"/>
</filter>
<clipPath id="clip0_1_128">
<rect x="0.160156" width="52" height="52" rx="26" fill="white"/>
</clipPath>
</defs>
</svg>
