<svg width="261" height="99" viewBox="0 0 261 99" fill="none" xmlns="http://www.w3.org/2000/svg">
<path fill-rule="evenodd" clip-rule="evenodd" d="M38.8745 0.137282C41.0083 -0.434395 43.2012 0.831628 43.773 2.96541L49.148 23.024L54.523 2.96736C55.0947 0.83354 57.2876 -0.43342 59.4214 0.138258L64.7554 1.56795C66.8889 2.13986 68.1551 4.33275 67.5835 6.46638L62.2085 26.5269L76.896 11.8394C78.4581 10.2779 80.9903 10.2778 82.5523 11.8394L86.4566 15.7447C88.0187 17.3068 88.0187 19.8389 86.4566 21.401L71.771 36.0875L91.8316 30.7115C93.9653 30.1401 96.1583 31.4069 96.73 33.5406L98.1587 38.8736C98.7305 41.0075 97.4645 43.2013 95.3306 43.773L75.271 49.148L95.3306 54.523C97.4645 55.0948 98.7315 57.2886 98.1597 59.4224L96.73 64.7554C96.1583 66.8892 93.9653 68.1561 91.8316 67.5845L71.772 62.2095L86.4566 76.8941C88.0185 78.4562 88.0186 80.9883 86.4566 82.5504L82.5523 86.4547C80.9902 88.0168 78.4572 88.0168 76.8951 86.4547L62.2095 71.7691L67.5845 91.8306C68.1562 93.9644 66.8901 96.1572 64.7564 96.7291L59.4224 98.1588C57.2888 98.7303 55.0959 97.4641 54.524 95.3306L49.148 75.2681L43.772 95.3316C43.2003 97.4653 41.0073 98.7321 38.8736 98.1607L33.5396 96.731C31.4058 96.1593 30.1399 93.9664 30.7115 91.8326L36.0865 71.772L21.4029 86.4547C19.8408 88.0168 17.3087 88.0167 15.7466 86.4547L11.8413 82.5504C10.2797 80.9884 10.2798 78.4561 11.8413 76.8941L26.5269 62.2086L6.46537 67.5845C4.3316 68.1561 2.13867 66.8892 1.56693 64.7554L0.137242 59.4224C-0.434525 57.2886 0.832479 55.0948 2.96634 54.523L23.0269 49.148L2.96634 43.773C0.832479 43.2013 -0.433549 41.0075 0.138218 38.8736L1.56693 33.5406C2.1387 31.4067 4.33248 30.1397 6.46634 30.7115L26.5279 36.0875L11.8413 21.401C10.2796 19.8389 10.2796 17.3067 11.8413 15.7447L15.7456 11.8394C17.3077 10.2775 19.8408 10.2776 21.4029 11.8394L36.0874 26.524L30.7124 6.46541C30.1407 4.3316 31.4068 2.13783 33.5406 1.56599L38.8745 0.137282ZM49.149 34.7476C41.1963 34.7479 34.7497 41.1944 34.7495 49.147C34.7495 57.0998 41.1962 63.5472 49.149 63.5474C57.1019 63.5474 63.5494 57.0999 63.5494 49.147C63.5492 41.1943 57.1018 34.7476 49.149 34.7476Z" fill="url(#paint0_linear_102_421)"/>
<path d="M126.349 65.6538C127.132 71.7071 129.256 76.2658 132.722 79.3298C136.187 82.3939 140.603 83.9259 145.97 83.9259C150.069 83.9259 153.516 83.1412 156.311 81.5718C159.143 79.965 161.286 78.0407 162.739 75.7987C164.23 73.5194 164.975 71.3335 164.975 69.241C164.975 66.7748 164.323 64.5889 163.019 62.6832C161.714 60.7402 159.683 59.1521 156.926 57.919C154.205 56.686 150.646 55.8265 146.249 55.3408C142.783 54.9297 139.448 54.2571 136.243 53.323C133.038 52.3888 130.169 51.0623 127.635 49.3435C125.101 47.6247 123.107 45.3827 121.654 42.6176C120.2 39.8151 119.474 36.3774 119.474 32.3045C119.474 28.7921 120.182 25.5786 121.598 22.6641C123.051 19.7122 125.064 17.1713 127.635 15.0414C130.206 12.8742 133.225 11.2114 136.69 10.053C140.156 8.85729 143.901 8.25943 147.926 8.25943C151.615 8.25943 154.466 8.68914 156.479 9.54856C158.528 10.3706 160.075 11.2114 161.118 12.0708C162.199 12.9302 163.093 13.3599 163.801 13.3599C164.584 13.3599 165.292 13.0797 165.925 12.5192C166.559 11.9213 167.248 11.6224 167.994 11.6224C168.963 11.6224 169.82 12.0147 170.565 12.7994C171.31 13.5841 171.907 14.6117 172.354 15.8821C172.801 17.1152 173.136 18.4791 173.36 19.9737C173.583 21.4684 173.695 22.9443 173.695 24.4016C173.695 26.7183 173.323 28.8295 172.577 30.7352C171.832 32.6408 170.621 33.5937 168.944 33.5937C167.528 33.5937 166.671 33.0519 166.373 31.9683C166.074 30.8473 165.739 29.5208 165.366 27.9888C165.143 26.9799 164.77 25.9336 164.248 24.85C163.727 23.729 163.112 22.6828 162.404 21.7112C160.727 19.5814 158.584 17.8625 155.975 16.5547C153.367 15.2095 150.702 14.5369 147.982 14.5369C144.963 14.5369 142.113 15.0601 139.429 16.1063C136.784 17.1526 134.622 18.6099 132.945 20.4782C131.268 22.3465 130.43 24.5511 130.43 27.092C130.43 30.1934 131.194 32.6035 132.722 34.3223C134.287 36.0038 136.56 37.2929 139.541 38.1897C142.56 39.0491 146.249 39.8151 150.609 40.4877C155.118 41.2351 159.273 42.3374 163.075 43.7946C166.876 45.2519 169.95 47.4191 172.298 50.2963C174.646 53.1362 175.819 57.0783 175.819 62.1227C175.819 65.822 175.205 69.3531 173.975 72.716C172.745 76.079 170.882 79.0683 168.385 81.6839C165.888 84.2995 162.795 86.3733 159.106 87.9053C155.454 89.4 151.187 90.1473 146.305 90.1473C140.529 90.1473 135.368 89.3253 130.821 87.6812C126.312 86.037 123.051 83.4775 121.039 80.0024C120.703 79.4793 120.331 78.6572 119.921 77.5363C119.548 76.3779 119.194 74.9393 118.859 73.2205C118.561 71.4643 118.412 69.4278 118.412 67.1111C118.412 64.7944 118.654 63.1877 119.138 62.2909C119.66 61.3941 120.48 60.9457 121.598 60.9457C122.567 60.9457 123.368 61.1699 124.001 61.6183C124.635 62.0293 125.157 62.5898 125.567 63.2998C125.977 63.9723 126.237 64.757 126.349 65.6538Z" fill="#000026"/>
<path d="M180.317 62.9396C180.317 59.0433 181.038 55.408 182.48 52.0339C183.923 48.6597 185.946 45.7073 188.55 43.1767C191.153 40.6059 194.218 38.6175 197.743 37.2117C201.309 35.7656 205.175 35.0425 209.341 35.0425C214.349 35.0425 218.755 36.1472 222.561 38.3565C226.407 40.5256 229.411 43.5583 231.575 47.4546C233.738 51.3108 234.82 55.8298 234.82 61.0115C234.82 65.0686 234.119 68.8444 232.716 72.3391C231.314 75.7936 229.351 78.8263 226.827 81.4373C224.344 84.0081 221.399 86.0366 217.994 87.5228C214.589 88.9689 210.843 89.6919 206.757 89.6919C201.709 89.6919 197.183 88.527 193.177 86.1973C189.211 83.8675 186.066 80.6942 183.742 76.6773C181.459 72.6203 180.317 68.041 180.317 62.9396ZM209.461 83.7269C212.025 83.7269 214.349 83.044 216.432 81.6783C218.555 80.3126 220.237 78.4648 221.479 76.135C222.761 73.7651 223.402 71.0738 223.402 68.0611C223.402 64.928 222.962 61.7948 222.08 58.6617C221.239 55.4884 220.037 52.5962 218.475 49.9853C216.912 47.3341 215.05 45.2253 212.886 43.6587C210.723 42.052 208.339 41.2486 205.736 41.2486C203.332 41.2486 201.109 41.9114 199.065 43.2369C197.022 44.5625 195.38 46.4303 194.138 48.8405C192.896 51.2506 192.275 54.0624 192.275 57.2759C192.275 60.4894 192.716 63.6627 193.597 66.7958C194.479 69.929 195.68 72.781 197.203 75.3517C198.765 77.8824 200.588 79.9109 202.671 81.4373C204.754 82.9637 207.017 83.7269 209.461 83.7269Z" fill="#000026"/>
<path d="M242.72 55.0605V38.3579C242.72 32.3793 242.645 27.858 242.496 24.7939C242.384 21.6926 242.123 19.5814 241.713 18.4604C241.304 17.3394 240.651 16.7415 239.757 16.6668C238.825 16.5921 238.08 16.6668 237.521 16.891C236.962 17.0778 236.403 17.1526 235.844 17.1152C234.54 17.0405 233.888 16.3305 233.888 14.9853C233.888 14.1633 234.167 13.5467 234.726 13.1357C235.322 12.6873 236.235 12.1642 237.465 11.5663C238.769 10.9311 240.39 10.3706 242.328 9.88486C244.266 9.36173 246.129 8.95071 247.918 8.65178C249.744 8.31548 251.067 8.14733 251.887 8.14733C252.558 8.14733 253.005 8.33416 253.229 8.70782C253.452 9.04412 253.564 9.6233 253.564 10.4453C253.564 12.0147 253.527 13.883 253.452 16.0503C253.378 18.1801 253.303 21.0387 253.229 24.6258C253.154 28.1756 253.117 32.809 253.117 38.526V54.3319C253.117 59.1147 253.117 63.4119 253.117 67.2232C253.154 70.9972 253.247 74.1359 253.396 76.6395C253.583 79.1056 253.825 80.7684 254.123 81.6278C254.384 82.3378 254.701 82.8049 255.073 83.0291C255.483 83.2533 255.968 83.3841 256.527 83.4214C257.16 83.4962 257.663 83.4962 258.036 83.4214C258.408 83.3093 258.856 83.2906 259.377 83.3654C259.75 83.4027 260.085 83.5709 260.384 83.8698C260.719 84.1314 260.887 84.505 260.887 84.9908C260.887 85.7755 260.533 86.4668 259.825 87.0646C259.117 87.6625 257.775 88.1296 255.8 88.4659C253.862 88.8395 250.974 89.0263 247.136 89.0263C241.844 89.0263 238.266 88.7648 236.403 88.2417C234.54 87.7185 233.608 86.8404 233.608 85.6073C233.608 85.0468 233.739 84.5798 233.999 84.2061C234.26 83.7951 234.652 83.5709 235.173 83.5335C235.658 83.4962 236.142 83.5335 236.627 83.6456C237.148 83.7204 237.651 83.739 238.136 83.7017C238.62 83.6643 239.161 83.4588 239.757 83.0851C240.353 82.7115 240.8 82.1697 241.099 81.4597C241.732 79.8156 242.161 76.8823 242.384 72.66C242.608 68.4002 242.72 62.5337 242.72 55.0605Z" fill="#000026"/>
<defs>
<linearGradient id="paint0_linear_102_421" x1="49.1485" y1="98.2978" x2="49.1485" y2="7.62939e-06" gradientUnits="userSpaceOnUse">
<stop stop-color="#FF4C4C"/>
<stop offset="1" stop-color="#FFAB4C"/>
</linearGradient>
</defs>
</svg>
